<?xml version="1.0" encoding="utf-8"?>
<!-- Generator: Adobe Illustrator 16.0.0, SVG Export Plug-In . SVG Version: 6.00 Build 0)  -->
<!DOCTYPE svg PUBLIC "-//W3C//DTD SVG 1.1//EN" "http://www.w3.org/Graphics/SVG/1.1/DTD/svg11.dtd">
<svg version="1.1" id="Layer_1" xmlns="http://www.w3.org/2000/svg" xmlns:xlink="http://www.w3.org/1999/xlink" x="0px" y="0px"
	 width="216px" height="90px" viewBox="0 0 216 90" enable-background="new 0 0 216 90" xml:space="preserve">
<g>
	<path fill="#FFFFFF" d="M17.073,59.604l2.316-7.656h9.262l2.137,7.656h7.837l-8.194-28.854c-0.534-1.959-1.425-2.492-3.384-2.492
		H15.648v2.672h0.891c1.603,0,2.137,0.355,2.137,1.424c0,0.535,0,1.068-0.535,2.67l-8.193,24.58H17.073L17.073,59.604z
		 M27.582,46.96h-7.125l3.741-12.469L27.582,46.96L27.582,46.96z"/>
	<path fill="#FFFFFF" d="M48.065,59.604V30.573c0-1.426-0.712-2.314-2.315-2.314h-6.946v2.672h0.356
		c1.425,0,1.959,0.533,1.959,1.779v26.895H48.065L48.065,59.604z"/>
	<path fill="#FFFFFF" d="M60.711,59.604V30.573c0-1.426-0.891-2.314-2.315-2.314h-6.947v2.672h0.357
		c1.247,0,1.958,0.533,1.958,1.779v26.895H60.711L60.711,59.604z"/>
	<path fill="#FFFFFF" d="M73.357,59.604V38.411c0-1.426-0.89-2.316-2.138-2.316h-7.124v2.494h0.356c1.425,0,1.96,0.713,1.96,1.959
		v19.057H73.357L73.357,59.604z M73.535,31.108c0-2.139-1.424-3.385-4.096-3.385c-2.494,0-4.097,1.246-4.097,3.385
		c0,2.137,1.604,3.205,4.097,3.205C72.11,34.313,73.535,33.245,73.535,31.108L73.535,31.108z"/>
	<path fill="#FFFFFF" d="M80.125,42.507l0.713-0.178c1.781-0.713,2.85-1.068,4.097-1.246c0.712-0.18,1.603-0.18,2.136-0.18
		c2.138,0,3.029,0.713,3.029,2.85v0.533c-3.384,0.535-4.275,0.713-5.878,1.07c-1.068,0.178-1.958,0.535-2.85,0.891
		c-2.85,1.248-4.096,3.385-4.096,6.945c0,4.453,1.781,6.592,5.699,6.592c1.604,0,3.206-0.357,4.454-1.068
		c0.89-0.535,1.424-0.893,2.85-2.137v0.711c0,1.604,0.712,2.314,1.958,2.314h6.591v-2.492h-0.179c-1.247,0-1.959-0.533-1.959-1.781
		V43.753c0-5.877-1.96-8.014-7.837-8.014c-1.959,0-3.74,0.355-5.521,0.711c-1.781,0.357-2.672,0.713-4.81,1.783L80.125,42.507
		L80.125,42.507z M90.1,48.206v4.631c-1.425,1.426-2.85,2.137-4.275,2.137c-1.604,0-2.137-0.711-2.137-2.492
		s0.534-2.672,1.959-3.207C86.894,48.739,87.962,48.562,90.1,48.206L90.1,48.206z"/>
	<path fill="#FFFFFF" d="M109.515,59.604V43.575c1.604-1.426,2.671-1.959,4.274-1.959s2.138,0.713,2.138,3.029v14.959h6.769V43.575
		c0-3.385-0.356-4.631-1.248-5.879c-1.067-1.246-2.492-1.779-4.452-1.779c-2.672,0-4.81,0.891-7.837,3.561v-1.244
		c0-1.426-0.535-2.139-1.959-2.139h-6.947v2.494h0.356c1.424,0,1.959,0.713,1.959,1.959v19.057H109.515L109.515,59.604z"/>
	<path fill="#FFFFFF" d="M144.426,54.974h-10.51l10.152-14.07v-4.809h-14.961c-1.781,0-2.494,0.713-2.494,2.494v4.273h2.494v-0.533
		c0-1.246,0.534-1.781,1.959-1.781h5.521L126.436,54.62v4.984h17.99V54.974L144.426,54.974z"/>
	<path fill="#FFFFFF" d="M206.052,44.999c0-14.604-10.864-25.291-25.47-25.291c-14.428,0-25.115,10.688-25.115,25.291
		c0,14.428,10.688,25.293,25.294,25.293C195.188,70.292,206.052,59.427,206.052,44.999L206.052,44.999z M201.777,44.999
		c0,12.291-8.905,21.375-21.195,21.375c-12.112,0-20.84-9.084-20.84-21.375c0-12.467,8.728-21.373,20.84-21.373
		C192.872,23.626,201.777,32.532,201.777,44.999L201.777,44.999z M173.813,58.181V35.382h-3.74c-1.959,0-2.85,0.891-2.85,2.852
		v19.947H173.813L173.813,58.181z M187.528,58.181h6.591V38.233c0-1.961-0.713-2.852-2.85-2.852h-3.741V58.181L187.528,58.181z
		 M183.967,58.181V31.819c0-2.137-0.713-2.85-2.851-2.85h-6.056v2.85h0.533c1.426,0,1.783,0.355,1.783,1.781v24.58H183.967
		L183.967,58.181z"/>
</g>
</svg>
