<?xml version="1.0" encoding="utf-8"?>
<!-- Generator: Adobe Illustrator 16.0.0, SVG Export Plug-In . SVG Version: 6.00 Build 0)  -->
<!DOCTYPE svg PUBLIC "-//W3C//DTD SVG 1.1//EN" "http://www.w3.org/Graphics/SVG/1.1/DTD/svg11.dtd">
<svg version="1.1" id="Layer_1" xmlns="http://www.w3.org/2000/svg" xmlns:xlink="http://www.w3.org/1999/xlink" x="0px" y="0px"
	 width="216px" height="90px" viewBox="0 0 216 90" enable-background="new 0 0 216 90" xml:space="preserve">
<g>
	<g>
		<path fill="#FFFFFF" d="M23.561,63.796c0,1.018-0.187,1.922-0.562,2.717c-0.375,0.793-0.895,1.467-1.559,2.02
			c-0.666,0.555-1.448,0.971-2.348,1.25c-0.9,0.279-1.87,0.42-2.91,0.42c-0.727,0-1.4-0.063-2.021-0.186
			c-0.621-0.123-1.174-0.273-1.66-0.453c-0.486-0.178-0.895-0.363-1.224-0.553c-0.33-0.189-0.559-0.352-0.688-0.486
			s-0.224-0.305-0.285-0.512s-0.092-0.482-0.092-0.83c0-0.246,0.011-0.449,0.034-0.611s0.056-0.295,0.101-0.395
			c0.044-0.1,0.101-0.17,0.168-0.209c0.067-0.039,0.145-0.059,0.234-0.059c0.157,0,0.377,0.096,0.662,0.285
			c0.286,0.189,0.651,0.396,1.099,0.619c0.447,0.225,0.986,0.434,1.618,0.629c0.631,0.197,1.361,0.293,2.188,0.293
			c0.626,0,1.199-0.082,1.719-0.25c0.52-0.168,0.967-0.406,1.341-0.713c0.375-0.309,0.663-0.686,0.864-1.133
			c0.201-0.445,0.302-0.955,0.302-1.525c0-0.615-0.14-1.141-0.419-1.576s-0.648-0.818-1.106-1.148
			c-0.458-0.33-0.981-0.631-1.568-0.906c-0.587-0.273-1.188-0.553-1.803-0.838s-1.213-0.602-1.794-0.947
			c-0.582-0.346-1.102-0.754-1.56-1.225c-0.458-0.469-0.83-1.02-1.115-1.652c-0.285-0.631-0.427-1.389-0.427-2.271
			c0-0.906,0.165-1.713,0.495-2.424c0.33-0.709,0.788-1.305,1.375-1.785s1.286-0.846,2.096-1.098s1.685-0.377,2.625-0.377
			c0.48,0,0.964,0.041,1.45,0.125s0.945,0.195,1.375,0.336c0.431,0.139,0.813,0.295,1.149,0.469s0.556,0.313,0.663,0.42
			c0.106,0.105,0.176,0.189,0.209,0.252c0.034,0.061,0.062,0.139,0.084,0.234c0.022,0.094,0.039,0.209,0.05,0.344
			c0.011,0.133,0.017,0.307,0.017,0.52c0,0.201-0.008,0.379-0.025,0.535c-0.017,0.158-0.042,0.289-0.075,0.395
			c-0.034,0.107-0.082,0.186-0.143,0.236c-0.062,0.049-0.132,0.074-0.21,0.074c-0.123,0-0.315-0.078-0.579-0.234
			c-0.263-0.156-0.584-0.332-0.964-0.527c-0.38-0.197-0.83-0.375-1.35-0.537c-0.52-0.162-1.104-0.244-1.752-0.244
			c-0.604,0-1.129,0.082-1.577,0.244c-0.447,0.162-0.816,0.377-1.106,0.645c-0.291,0.27-0.509,0.588-0.654,0.957
			c-0.145,0.367-0.218,0.76-0.218,1.174c0,0.604,0.14,1.123,0.419,1.559c0.279,0.438,0.651,0.822,1.115,1.158
			c0.464,0.334,0.992,0.643,1.585,0.922c0.592,0.279,1.196,0.563,1.811,0.846c0.615,0.285,1.218,0.6,1.811,0.939
			c0.592,0.342,1.121,0.744,1.584,1.207c0.464,0.465,0.838,1.012,1.124,1.645C23.418,62.188,23.561,62.935,23.561,63.796z"/>
		<path fill="#FFFFFF" d="M40.246,61.265c0,0.436-0.109,0.746-0.328,0.93c-0.219,0.186-0.469,0.277-0.75,0.277h-9.939
			c0,0.838,0.084,1.592,0.253,2.264c0.168,0.67,0.449,1.246,0.843,1.727c0.393,0.48,0.904,0.85,1.533,1.107
			c0.629,0.256,1.398,0.385,2.309,0.385c0.719,0,1.359-0.059,1.921-0.176c0.562-0.117,1.047-0.248,1.458-0.395
			c0.41-0.145,0.747-0.275,1.011-0.393c0.264-0.119,0.464-0.178,0.599-0.178c0.079,0,0.148,0.02,0.21,0.059
			c0.062,0.041,0.109,0.1,0.143,0.176c0.034,0.08,0.059,0.188,0.076,0.328c0.017,0.141,0.025,0.311,0.025,0.512
			c0,0.145-0.005,0.271-0.017,0.377s-0.025,0.201-0.042,0.285s-0.045,0.16-0.084,0.227s-0.089,0.131-0.151,0.193
			c-0.061,0.061-0.243,0.162-0.545,0.301c-0.302,0.141-0.693,0.277-1.174,0.41c-0.48,0.135-1.037,0.256-1.668,0.361
			s-1.305,0.16-2.021,0.16c-1.241,0-2.328-0.174-3.262-0.521c-0.933-0.346-1.719-0.859-2.356-1.541s-1.118-1.537-1.442-2.566
			c-0.324-1.027-0.486-2.225-0.486-3.588c0-1.297,0.167-2.463,0.503-3.498c0.335-1.033,0.819-1.91,1.451-2.631
			c0.631-0.723,1.395-1.275,2.289-1.66c0.894-0.387,1.895-0.58,3.001-0.58c1.185,0,2.194,0.191,3.027,0.57
			c0.833,0.381,1.518,0.893,2.055,1.535s0.931,1.398,1.182,2.264c0.251,0.867,0.377,1.791,0.377,2.775V61.265z M37.462,60.442
			c0.033-1.453-0.291-2.594-0.97-3.422c-0.681-0.826-1.69-1.24-3.028-1.24c-0.687,0-1.289,0.129-1.806,0.385
			c-0.518,0.258-0.95,0.6-1.299,1.023c-0.349,0.426-0.618,0.92-0.81,1.484s-0.298,1.154-0.321,1.77H37.462z"/>
		<path fill="#FFFFFF" d="M57.065,55.06c0,0.391-0.053,0.674-0.159,0.846c-0.106,0.174-0.243,0.26-0.411,0.26h-2.163
			c0.391,0.404,0.665,0.848,0.822,1.334c0.156,0.486,0.235,0.992,0.235,1.518c0,0.873-0.14,1.643-0.419,2.314
			c-0.28,0.67-0.679,1.238-1.199,1.701c-0.52,0.465-1.137,0.82-1.853,1.066c-0.716,0.244-1.509,0.367-2.381,0.367
			c-0.615,0-1.199-0.08-1.752-0.242c-0.554-0.162-0.981-0.365-1.283-0.613c-0.201,0.203-0.366,0.432-0.495,0.688
			c-0.129,0.258-0.193,0.555-0.193,0.891c0,0.391,0.182,0.715,0.545,0.973c0.363,0.256,0.847,0.396,1.451,0.418l3.94,0.168
			c0.749,0.021,1.437,0.125,2.063,0.311c0.626,0.184,1.168,0.447,1.627,0.787c0.458,0.342,0.816,0.762,1.073,1.258
			c0.257,0.498,0.386,1.076,0.386,1.736c0,0.693-0.146,1.352-0.437,1.979c-0.291,0.625-0.735,1.176-1.333,1.652
			c-0.598,0.475-1.361,0.85-2.289,1.123c-0.928,0.273-2.024,0.41-3.287,0.41c-1.218,0-2.255-0.104-3.11-0.311
			s-1.557-0.488-2.104-0.846s-0.945-0.785-1.19-1.283c-0.246-0.498-0.369-1.037-0.369-1.619c0-0.367,0.044-0.725,0.134-1.072
			c0.089-0.346,0.227-0.676,0.411-0.99c0.185-0.313,0.414-0.611,0.688-0.896s0.59-0.566,0.947-0.846
			c-0.547-0.279-0.953-0.633-1.215-1.057c-0.263-0.426-0.395-0.883-0.395-1.375c0-0.682,0.14-1.291,0.419-1.828
			c0.279-0.537,0.626-1.018,1.04-1.443c-0.346-0.412-0.62-0.879-0.821-1.398c-0.201-0.521-0.302-1.148-0.302-1.887
			c0-0.861,0.145-1.633,0.436-2.314c0.291-0.682,0.693-1.258,1.207-1.727c0.514-0.471,1.132-0.83,1.853-1.082
			s1.506-0.377,2.356-0.377c0.458,0,0.886,0.023,1.283,0.074s0.769,0.121,1.115,0.209h4.561c0.19,0,0.333,0.094,0.428,0.277
			C57.017,54.397,57.065,54.679,57.065,55.06z M54.13,70.989c0-0.648-0.266-1.148-0.796-1.5c-0.531-0.352-1.25-0.539-2.155-0.563
			l-3.907-0.135c-0.358,0.281-0.651,0.545-0.88,0.797s-0.411,0.492-0.545,0.721c-0.134,0.23-0.227,0.457-0.277,0.68
			s-0.075,0.453-0.075,0.688c0,0.727,0.369,1.277,1.106,1.652c0.738,0.373,1.766,0.561,3.085,0.561c0.838,0,1.54-0.08,2.104-0.242
			s1.02-0.377,1.367-0.646c0.347-0.268,0.595-0.574,0.746-0.922C54.055,71.733,54.13,71.37,54.13,70.989z M52.738,59.034
			c0-1.029-0.282-1.832-0.847-2.406c-0.564-0.576-1.367-0.865-2.406-0.865c-0.537,0-1.003,0.09-1.4,0.27
			c-0.397,0.178-0.727,0.424-0.99,0.736c-0.263,0.314-0.458,0.676-0.587,1.082c-0.128,0.408-0.193,0.836-0.193,1.283
			c0,0.996,0.282,1.777,0.847,2.348c0.564,0.57,1.355,0.855,2.373,0.855c0.548,0,1.023-0.086,1.425-0.26s0.735-0.414,0.998-0.721
			c0.262-0.309,0.458-0.662,0.586-1.066C52.674,59.89,52.738,59.47,52.738,59.034z"/>
		<path fill="#FFFFFF" d="M74.846,69.464c0,0.09-0.02,0.164-0.059,0.227c-0.039,0.061-0.109,0.115-0.209,0.158
			c-0.101,0.045-0.232,0.078-0.394,0.102c-0.163,0.021-0.361,0.033-0.596,0.033c-0.257,0-0.467-0.012-0.629-0.033
			c-0.162-0.023-0.291-0.057-0.386-0.102c-0.095-0.043-0.159-0.098-0.192-0.158c-0.034-0.063-0.051-0.137-0.051-0.227v-1.996
			c-0.861,0.951-1.71,1.643-2.549,2.08c-0.838,0.436-1.688,0.654-2.549,0.654c-1.006,0-1.853-0.168-2.541-0.504
			s-1.244-0.791-1.668-1.367c-0.425-0.574-0.73-1.246-0.915-2.012c-0.184-0.766-0.276-1.695-0.276-2.793v-9.154
			c0-0.09,0.02-0.166,0.059-0.227c0.039-0.063,0.115-0.117,0.227-0.168c0.111-0.051,0.257-0.084,0.436-0.1
			c0.179-0.018,0.402-0.025,0.67-0.025c0.269,0,0.492,0.008,0.671,0.025c0.179,0.016,0.321,0.049,0.428,0.1
			c0.106,0.051,0.182,0.105,0.226,0.168c0.044,0.061,0.067,0.137,0.067,0.227v8.787c0,0.883,0.064,1.59,0.193,2.121
			c0.128,0.531,0.324,0.984,0.587,1.357c0.262,0.375,0.595,0.666,0.998,0.873c0.402,0.205,0.872,0.309,1.409,0.309
			c0.693,0,1.383-0.244,2.071-0.736s1.417-1.213,2.188-2.164V54.372c0-0.09,0.02-0.166,0.059-0.227
			c0.039-0.063,0.114-0.117,0.227-0.168c0.111-0.051,0.254-0.084,0.427-0.1c0.173-0.018,0.4-0.025,0.679-0.025
			c0.269,0,0.492,0.008,0.671,0.025c0.179,0.016,0.318,0.049,0.419,0.1c0.101,0.051,0.176,0.105,0.226,0.168
			c0.05,0.061,0.076,0.137,0.076,0.227V69.464z"/>
		<path fill="#FFFFFF" d="M89.104,55.36c0,0.246-0.006,0.453-0.017,0.621c-0.011,0.168-0.034,0.299-0.067,0.395
			c-0.033,0.094-0.075,0.168-0.125,0.217c-0.05,0.051-0.121,0.076-0.209,0.076c-0.09,0-0.199-0.025-0.327-0.076
			c-0.128-0.049-0.274-0.1-0.436-0.15s-0.344-0.098-0.545-0.143s-0.419-0.066-0.654-0.066c-0.28,0-0.553,0.057-0.822,0.168
			c-0.268,0.111-0.551,0.295-0.847,0.553c-0.296,0.258-0.607,0.598-0.931,1.023c-0.325,0.424-0.682,0.945-1.073,1.559v9.928
			c0,0.09-0.022,0.164-0.067,0.227c-0.045,0.061-0.118,0.115-0.218,0.158c-0.101,0.045-0.241,0.078-0.419,0.102
			c-0.179,0.021-0.408,0.033-0.688,0.033c-0.268,0-0.492-0.012-0.67-0.033c-0.179-0.023-0.322-0.057-0.428-0.102
			c-0.106-0.043-0.179-0.098-0.218-0.158c-0.04-0.063-0.059-0.137-0.059-0.227V54.372c0-0.09,0.017-0.166,0.05-0.227
			c0.034-0.063,0.101-0.117,0.202-0.168c0.101-0.051,0.229-0.084,0.385-0.1c0.156-0.018,0.363-0.025,0.621-0.025
			c0.246,0,0.45,0.008,0.612,0.025c0.162,0.016,0.288,0.049,0.377,0.1c0.089,0.051,0.154,0.105,0.193,0.168
			c0.039,0.061,0.059,0.137,0.059,0.227v2.197c0.414-0.605,0.802-1.096,1.166-1.477s0.707-0.68,1.031-0.896
			c0.324-0.219,0.646-0.369,0.964-0.453c0.318-0.084,0.64-0.127,0.964-0.127c0.146,0,0.31,0.01,0.495,0.025
			c0.185,0.018,0.378,0.049,0.579,0.094c0.202,0.043,0.383,0.094,0.545,0.15s0.277,0.111,0.344,0.168
			c0.067,0.055,0.112,0.109,0.134,0.158c0.022,0.051,0.042,0.115,0.059,0.193c0.017,0.078,0.028,0.193,0.034,0.344
			C89.102,54.899,89.104,55.104,89.104,55.36z"/>
		<path fill="#FFFFFF" d="M104.604,61.749c0,1.23-0.162,2.363-0.486,3.396c-0.324,1.035-0.808,1.926-1.451,2.674
			c-0.643,0.75-1.448,1.334-2.415,1.754c-0.967,0.418-2.088,0.629-3.362,0.629c-1.241,0-2.322-0.186-3.245-0.555
			s-1.691-0.904-2.306-1.609c-0.615-0.703-1.073-1.559-1.375-2.564c-0.302-1.008-0.453-2.146-0.453-3.422
			c0-1.23,0.16-2.361,0.479-3.396c0.318-1.033,0.799-1.924,1.442-2.674c0.643-0.748,1.445-1.33,2.406-1.744s2.085-0.621,3.371-0.621
			c1.241,0,2.322,0.186,3.245,0.555s1.69,0.904,2.306,1.609c0.615,0.705,1.076,1.559,1.383,2.566
			C104.451,59.353,104.604,60.487,104.604,61.749z M101.737,61.935c0-0.816-0.076-1.588-0.229-2.314s-0.403-1.363-0.753-1.912
			c-0.35-0.547-0.823-0.98-1.421-1.299c-0.598-0.318-1.342-0.479-2.233-0.479c-0.823,0-1.531,0.146-2.124,0.438
			c-0.592,0.289-1.08,0.701-1.463,1.232c-0.384,0.529-0.668,1.158-0.854,1.885c-0.186,0.729-0.279,1.521-0.279,2.383
			c0,0.826,0.076,1.604,0.229,2.33s0.406,1.361,0.761,1.902c0.355,0.543,0.832,0.973,1.43,1.293
			c0.598,0.318,1.342,0.477,2.234,0.477c0.812,0,1.517-0.145,2.115-0.436c0.598-0.291,1.088-0.699,1.472-1.225
			c0.383-0.525,0.665-1.15,0.846-1.877S101.737,62.808,101.737,61.935z"/>
		<path fill="#FFFFFF" d="M117.668,65.354c0,0.771-0.143,1.459-0.428,2.063c-0.285,0.605-0.691,1.113-1.217,1.527
			s-1.15,0.727-1.877,0.938c-0.728,0.213-1.526,0.32-2.398,0.32c-0.537,0-1.049-0.043-1.535-0.127s-0.922-0.189-1.308-0.318
			s-0.712-0.262-0.98-0.402c-0.269-0.139-0.464-0.266-0.587-0.377s-0.212-0.268-0.268-0.471c-0.056-0.201-0.084-0.475-0.084-0.82
			c0-0.213,0.011-0.391,0.034-0.537c0.022-0.145,0.05-0.262,0.083-0.352c0.034-0.09,0.082-0.154,0.143-0.193
			c0.061-0.039,0.131-0.059,0.209-0.059c0.123,0,0.305,0.074,0.545,0.227c0.24,0.15,0.537,0.316,0.889,0.494
			c0.353,0.18,0.769,0.344,1.25,0.494c0.48,0.152,1.033,0.227,1.66,0.227c0.469,0,0.894-0.049,1.273-0.15
			c0.381-0.102,0.711-0.248,0.99-0.443c0.279-0.197,0.494-0.445,0.645-0.746c0.151-0.303,0.227-0.66,0.227-1.074
			c0-0.424-0.108-0.783-0.326-1.072c-0.219-0.291-0.506-0.549-0.864-0.771c-0.358-0.225-0.761-0.422-1.207-0.596
			c-0.447-0.174-0.908-0.355-1.384-0.545c-0.475-0.189-0.939-0.406-1.392-0.646s-0.858-0.533-1.216-0.881
			c-0.358-0.346-0.646-0.76-0.864-1.24c-0.218-0.48-0.327-1.057-0.327-1.727c0-0.594,0.115-1.16,0.344-1.703
			c0.229-0.541,0.573-1.016,1.031-1.426c0.458-0.406,1.031-0.734,1.719-0.98s1.489-0.369,2.406-0.369
			c0.403,0,0.806,0.035,1.208,0.102s0.766,0.15,1.09,0.252c0.324,0.1,0.601,0.209,0.83,0.326c0.229,0.117,0.402,0.221,0.52,0.311
			s0.195,0.168,0.234,0.234c0.039,0.068,0.067,0.143,0.084,0.227c0.018,0.084,0.033,0.188,0.051,0.311
			c0.017,0.123,0.025,0.273,0.025,0.453c0,0.189-0.009,0.354-0.025,0.494c-0.018,0.141-0.045,0.254-0.084,0.344
			s-0.087,0.154-0.143,0.193c-0.057,0.039-0.117,0.059-0.185,0.059c-0.101,0-0.246-0.063-0.437-0.186
			c-0.189-0.123-0.436-0.254-0.737-0.393c-0.302-0.141-0.657-0.271-1.064-0.395c-0.409-0.123-0.876-0.186-1.4-0.186
			c-0.47,0-0.884,0.055-1.241,0.16s-0.651,0.258-0.881,0.453c-0.229,0.195-0.402,0.428-0.52,0.695s-0.176,0.559-0.176,0.873
			c0,0.436,0.111,0.801,0.336,1.098c0.223,0.297,0.514,0.557,0.871,0.779c0.357,0.225,0.766,0.426,1.225,0.604
			c0.458,0.18,0.925,0.363,1.4,0.553c0.475,0.191,0.944,0.404,1.408,0.639s0.875,0.52,1.232,0.855s0.646,0.736,0.863,1.207
			C117.559,64.147,117.668,64.708,117.668,65.354z"/>
	</g>
	<g>
		<path fill="#FFFFFF" d="M129.309,62.755l-2.451,7.424h-3.152l8.02-23.604h3.678l8.055,23.604h-3.258l-2.521-7.424H129.309z
			 M137.047,60.372l-2.311-6.793c-0.525-1.541-0.875-2.941-1.226-4.307h-0.069c-0.351,1.4-0.736,2.836-1.191,4.271l-2.311,6.828
			H137.047z"/>
		<path fill="#FFFFFF" d="M149.369,48.36v4.869h4.412v2.346h-4.412v9.141c0,2.102,0.596,3.291,2.311,3.291
			c0.807,0,1.401-0.105,1.787-0.209l0.14,2.311c-0.595,0.244-1.541,0.42-2.731,0.42c-1.436,0-2.592-0.455-3.326-1.295
			c-0.876-0.912-1.191-2.416-1.191-4.414v-9.244h-2.627v-2.346h2.627v-4.063L149.369,48.36z"/>
		<path fill="#FFFFFF" d="M158.221,45.315h3.082v24.863h-3.082V45.315z"/>
		<path fill="#FFFFFF" d="M175.384,70.179l-0.245-2.137h-0.105c-0.945,1.33-2.766,2.521-5.183,2.521
			c-3.432,0-5.183-2.416-5.183-4.867c0-4.098,3.642-6.34,10.19-6.305v-0.35c0-1.4-0.386-3.922-3.853-3.922
			c-1.576,0-3.221,0.49-4.412,1.26l-0.7-2.029c1.4-0.912,3.432-1.508,5.567-1.508c5.184,0,6.444,3.537,6.444,6.934v6.34
			c0,1.471,0.069,2.906,0.28,4.063H175.384z M174.928,61.528c-3.361-0.07-7.179,0.525-7.179,3.816c0,1.996,1.331,2.943,2.907,2.943
			c2.205,0,3.606-1.402,4.098-2.838c0.104-0.314,0.174-0.664,0.174-0.98V61.528z"/>
		<path fill="#FFFFFF" d="M182.457,67.026c0.91,0.596,2.521,1.227,4.063,1.227c2.24,0,3.291-1.121,3.291-2.521
			c0-1.473-0.875-2.277-3.151-3.117c-3.047-1.086-4.482-2.768-4.482-4.797c0-2.732,2.206-4.975,5.848-4.975
			c1.716,0,3.222,0.492,4.168,1.051l-0.771,2.242c-0.666-0.42-1.892-0.98-3.467-0.98c-1.82,0-2.836,1.051-2.836,2.311
			c0,1.4,1.016,2.031,3.221,2.871c2.941,1.121,4.447,2.592,4.447,5.113c0,2.977-2.311,5.078-6.338,5.078
			c-1.856,0-3.572-0.455-4.764-1.156L182.457,67.026z"/>
	</g>
	<g>
		<path fill="#FFFFFF" d="M187.895,36.696c1.68,0.889,3.594,1.395,5.627,1.395c1.953,0,3.796-0.469,5.428-1.293l-5.648-6.92
			L187.895,36.696z"/>
		<g>
			<path fill="#FFFFFF" d="M203.621,32.608c1.23-1.889,1.947-4.143,1.947-6.564c0-6.652-5.395-12.047-12.047-12.047
				c-6.653,0-12.047,5.395-12.047,12.047c0,2.379,0.692,4.594,1.882,6.461l0.005-0.006l0,0l0.012-0.016l0.01-0.012l9.918-12.508
				l10.29,12.609L203.621,32.608z"/>
		</g>
		<path fill="#FFFFFF" d="M185.104,40.21c1.539,0.904,3.236,1.572,5.043,1.949l3.225-4.064c-2.012-0.02-3.914-0.465-5.607-1.238
			L185.104,40.21z"/>
		<path fill="#FFFFFF" d="M193.549,38.097l3.338,4.09c1.781-0.355,3.459-0.996,4.984-1.867l-2.779-3.391
			C197.412,37.671,195.533,38.091,193.549,38.097z"/>
		<path fill="#FFFFFF" d="M183.723,33.979l-2.467,3.109c1.115,1.221,2.412,2.273,3.848,3.121l2.66-3.354
			C186.219,36.149,184.847,35.167,183.723,33.979z"/>
		<path fill="#FFFFFF" d="M183.723,33.979l-2.467,3.109c1.115,1.221,2.412,2.273,3.848,3.121l2.66-3.354
			C186.219,36.149,184.847,35.167,183.723,33.979z"/>
		<path fill="#FFFFFF" d="M205.787,37.222l-2.575-3.156c-1.147,1.191-2.546,2.17-4.12,2.863l2.779,3.391
			C203.33,39.485,204.65,38.438,205.787,37.222z"/>
		<path fill="#FFFFFF" d="M205.787,37.222l-2.575-3.156c-1.147,1.191-2.546,2.17-4.12,2.863l2.779,3.391
			C203.33,39.485,204.65,38.438,205.787,37.222z"/>
	</g>
</g>
</svg>
