<?xml version="1.0" encoding="utf-8"?>
<!-- Generator: Adobe Illustrator 16.0.0, SVG Export Plug-In . SVG Version: 6.00 Build 0)  -->
<!DOCTYPE svg PUBLIC "-//W3C//DTD SVG 1.1//EN" "http://www.w3.org/Graphics/SVG/1.1/DTD/svg11.dtd">
<svg version="1.1" id="Layer_1" xmlns="http://www.w3.org/2000/svg" xmlns:xlink="http://www.w3.org/1999/xlink" x="0px" y="0px"
	 width="216px" height="90px" viewBox="0 0 216 90" enable-background="new 0 0 216 90" xml:space="preserve">
<g>
	<polygon fill-rule="evenodd" clip-rule="evenodd" fill="#FFFFFF" points="85.573,62.409 93.182,62.409 90.882,55.384 	"/>
	<polygon fill-rule="evenodd" clip-rule="evenodd" fill="#FFFFFF" points="101.067,68.36 102.264,72.196 104.227,69.651 
		102.877,65.876 	"/>
	<path fill-rule="evenodd" clip-rule="evenodd" fill="#FFFFFF" d="M146.932,7.679l-30.495,40.404h-4.663l30.495-40.404h-74.12
		v74.643h79.703V7.679H146.932z M126.254,77.411c-0.245-1.717-0.49-2.547-0.797-3.527l-2.517-8.008h-11.167l-2.025,2.639
		l1.811,5.432c0.369,1.133,0.736,2.023,1.412,3.465h-6.352l-1.043-3.465l-2.545,3.465h-5.093l-1.105-3.465l-2.668,3.465h-4.788
		h-0.336c0.122-0.092,0.246-0.213,0.336-0.307c1.29-1.135,2.118-2.178,2.823-3.129l3.252-4.264l-1.288-3.836H83.028l-8.712,11.535
		h-5.4c2.056-1.779,2.608-2.332,3.344-3.344l16.506-21.813c0.246-0.307,0.429-0.613,0.612-0.92c0.308-0.521,0.584-1.104,0.737-1.811
		h5.37c0,1.197,0.152,1.842,0.429,2.762l3.742,11.781l1.933-2.547l-3.068-9.357c-0.245-0.705-0.521-1.564-1.073-2.639h6.504
		c0.184,1.043,0.337,1.871,0.644,2.793l1.166,3.68l2.791-3.711c0.646-0.859,1.503-1.84,1.903-2.762h5.675
		c-1.104,0.889-1.841,1.811-2.517,2.699l-6.289,8.346l1.105,3.465l8.989-11.779c0.245-0.336,0.49-0.645,0.735-0.982
		c0.338-0.52,0.615-1.041,0.799-1.748h5.307c0.062,0.922,0.184,1.748,0.46,2.609l6.811,21.781c0.339,1.164,0.554,1.871,1.411,3.496
		H126.254z"/>
	<polygon fill-rule="evenodd" clip-rule="evenodd" fill="#FFFFFF" points="114.474,62.409 121.836,62.409 119.535,55.384 	"/>
</g>
</svg>
