<?xml version="1.0" encoding="utf-8"?>
<!-- Generator: Adobe Illustrator 16.0.0, SVG Export Plug-In . SVG Version: 6.00 Build 0)  -->
<!DOCTYPE svg PUBLIC "-//W3C//DTD SVG 1.1//EN" "http://www.w3.org/Graphics/SVG/1.1/DTD/svg11.dtd">
<svg version="1.1" id="Layer_1" xmlns="http://www.w3.org/2000/svg" xmlns:xlink="http://www.w3.org/1999/xlink" x="0px" y="0px"
	 width="216px" height="90px" viewBox="0 0 216 90" enable-background="new 0 0 216 90" xml:space="preserve">
<g>
	<g>
		<path fill="#FFFFFF" d="M98.674,43.491c0-1.888,0.337-2.562-1.775-3.687l0,0l-1.461-0.718v-1.304H110v1.304l-1.483,0.584l0,0
			c-2.202,0.898-2.202,1.146-2.157,3.82l0,0l0.022,10.764l-0.54,0.518l0,0c-2.538,0.651-8.472,2.27-13.82,2.27
			c-12.27,0-18.314-6.36-18.314-20.113c0-14.786,8.54-21.191,19.753-21.191c3.012,0,8.473,0,12.27,3.213
			c1.259,1.057,1.371,2.248,1.371,2.72c0,0.898-0.18,1.078-0.359,1.438l0,0l-2.719,5.282h-1.012l0,0
			c0-2.607-3.033-9.551-10.921-9.551c-9.146,0-9.596,6.382-9.596,17.169c0,9.438,0.988,17.933,11.91,17.933
			c3.527,0,4.18-1.865,4.27-3.955C98.674,49.985,98.674,44.547,98.674,43.491L98.674,43.491L98.674,43.491z"/>
		<path fill="#FFFFFF" d="M113.641,54.951l2.607-1.056l0,0c2.134-0.832,2.134-2.382,2.134-5.82l0,0V23.288l0,0
			c0-1.91-0.539-2.854-2.022-3.865l0,0l-2.383-1.596v-1.303h10.811l0.651,0.404l0,0c1.19,1.596,3.663,5.888,6.989,10.382l0,0
			l11.46,15.596l0,0c0.473,0.65,0.72,0.943,0.944,0.943c0.472,0,0.472-0.584,0.472-1.663l0,0V23.333l0,0
			c0-2.719-0.046-3.258-2.359-4.202l0,0l-3.394-1.304v-1.303h13.596v1.303l-1.73,0.652l0,0c-2.539,1.011-3.033,1.596-3.033,5.506
			l0,0v23.371l0,0c0,3.573,0.067,7.19,0.067,8.427l0,0l-0.405,0.472h-3.325l-0.651-0.472l0,0c-0.539-0.651-3.619-4.988-6.766-9.191
			l0,0L123.416,28.03l0,0c-0.765-1.011-1.124-1.551-1.416-1.551c-0.539,0-0.539,0.606-0.539,1.438l0,0v21.214l0,0
			c0,2.854,0,3.753,2.494,4.584l0,0l3.506,1.235v1.304h-13.82V54.951L113.641,54.951z"/>
		<path fill="#FFFFFF" d="M156.63,54.951l2.606-0.876l0,0c1.955-0.651,2.021-1.73,2.021-5.461l0,0v-25.64l0,0
			c0-2.832,0-3.55-2.021-4.202l0,0l-2.606-0.944v-1.303h19.663l0,0c6.877,0,13.618,1.483,13.618,10.495
			c0,8.248-6.157,13.348-15.776,13.348c-0.404,0-0.943-0.067-1.303-0.067l0,0l-0.876-2.135l0.472-0.472l0,0
			c4.314-0.112,9.551-1.888,8.809-10.225c-0.584-6.495-2.473-7.708-7.798-7.708c-3.618,0-3.865,0.539-3.865,2.023l0,0v26.831l0,0
			c0,3.979-0.066,4.81,2.315,5.461l0,0l3.078,0.876v1.304H156.63V54.951L156.63,54.951z"/>
		<polygon fill="#FFFFFF" points="198.686,62.413 73.707,62.413 73.707,61.581 198.686,61.581 198.686,62.413 		"/>
		<path fill="#FFFFFF" d="M49.303,36.188c0,3.663-2.967,6.628-6.652,6.628c-3.663,0-6.629-2.966-6.629-6.628
			c0-3.664,2.966-6.63,6.629-6.63C46.336,29.558,49.303,32.524,49.303,36.188L49.303,36.188L49.303,36.188z"/>
		<path fill="#FFFFFF" d="M31.617,25.108H17.279l2.899,8.877h7.146v-0.022l0,0c7.236,0,13.102-5.865,13.124-13.124l0,0l0,0l0,0
			v-7.124l-8.831-2.899V25.108L31.617,25.108z"/>
		<path fill="#FFFFFF" d="M31.572,47.244v14.314l8.876-2.877v-7.146h-0.022l0,0c0-7.236-5.865-13.102-13.124-13.124l0,0l0,0l0,0
			h-7.123l-2.899,8.832H31.572L31.572,47.244z"/>
		<path fill="#FFFFFF" d="M53.707,47.266h14.337l-2.921-8.854h-7.124h-0.022l0,0c-7.236,0.022-13.102,5.888-13.102,13.124l0,0l0,0
			v0.022v7.102l8.832,2.898V47.266L53.707,47.266z"/>
		<path fill="#FFFFFF" d="M53.729,25.153V10.838l-8.854,2.876v7.146l0,0l0,0c0.022,7.236,5.888,13.102,13.124,13.124l0,0h0.022l0,0
			h7.102l2.921-8.832H53.729L53.729,25.153z"/>
		<path fill="#FFFFFF" d="M195.417,17.176c1.37,0,2.493,1.101,2.493,2.674c0,1.55-1.123,2.674-2.493,2.674v0.629
			c1.819,0,3.304-1.483,3.304-3.303c0-1.843-1.484-3.326-3.304-3.326V17.176L195.417,17.176z M195.417,20.344v-0.786h0.022l0,0
			c0.426,0,0.764-0.067,0.764-0.562c0-0.45-0.404-0.517-0.742-0.517l0,0h-0.044v-0.54h0.112l0,0c0.898,0,1.393,0.314,1.393,1.101
			c0,0.652-0.381,0.967-0.988,1.012l0,0l1.012,1.663h-0.72L195.417,20.344z M195.417,22.524c-1.394,0-2.518-1.124-2.518-2.674
			c0-1.573,1.124-2.674,2.518-2.674l0,0v-0.652l0,0c-1.843,0-3.325,1.483-3.325,3.326c0,1.82,1.482,3.303,3.325,3.303l0,0l0,0l0,0
			V22.524L195.417,22.524L195.417,22.524L195.417,22.524L195.417,22.524z M195.417,17.939v0.54h-0.585l0,0v1.079h0.585v0.786
			l-0.158-0.247h-0.427v1.618h-0.695l0,0v-3.775H195.417z"/>
		<g>
			<path fill="#FFFFFF" d="M76.721,79.184c-1.404,0-2.274-0.397-2.596-0.58c-0.29-0.336-0.488-1.436-0.488-2.474
				c0.107-0.198,0.458-0.214,0.58-0.046c0.306,0.992,1.328,2.397,2.626,2.397c1.13,0,1.648-0.779,1.648-1.542
				c0-1.236-1.159-1.971-2.076-2.428c-1.099-0.55-2.305-1.466-2.305-2.978c-0.016-1.726,1.328-2.916,3.542-2.916
				c0.504,0,1.13,0.061,1.74,0.244c0.198,0.062,0.336,0.092,0.52,0.122c0.122,0.336,0.274,1.16,0.274,2.184
				c-0.076,0.183-0.458,0.198-0.596,0.046c-0.259-0.779-0.916-1.894-2.015-1.894c-1.008,0-1.558,0.656-1.558,1.421
				c0,0.701,0.626,1.343,1.389,1.739l1.008,0.535c0.947,0.504,2.153,1.389,2.153,3.068C80.568,77.963,79.026,79.184,76.721,79.184z"
				/>
			<path fill="#FFFFFF" d="M93.026,72.833c0,0.428,0.016,0.458,0.428,0.458h1.054c0.794,0,0.977-0.106,1.129-0.84l0.077-0.382
				c0.106-0.121,0.488-0.121,0.564,0.016c-0.03,0.488-0.046,1.038-0.046,1.619c0,0.58,0.016,1.129,0.046,1.617
				c-0.076,0.138-0.458,0.153-0.564,0.016l-0.077-0.381c-0.152-0.733-0.335-0.855-1.129-0.855h-1.054
				c-0.412,0-0.428,0.015-0.428,0.473v1.817c0,0.702,0.062,1.19,0.244,1.45c0.198,0.275,0.489,0.396,1.604,0.396
				c1.328,0,1.848-0.045,2.687-1.77c0.122-0.169,0.504-0.107,0.565,0.075c-0.062,0.794-0.428,2.03-0.642,2.443
				c-0.809-0.031-2.274-0.046-3.526-0.046h-1.985c-0.732,0-1.48,0.015-2.626,0.046c-0.122-0.092-0.122-0.458,0-0.534l0.718-0.107
				c0.688-0.107,0.779-0.198,0.779-1.604v-5.695c0-1.389-0.092-1.48-0.779-1.617l-0.382-0.077c-0.137-0.091-0.122-0.442,0.031-0.534
				c0.717,0.031,1.466,0.046,2.198,0.046h3.236c0.978,0,1.848-0.015,2.046-0.046c0.016,0.244,0.122,1.344,0.198,2.366
				c-0.061,0.168-0.412,0.198-0.564,0.062c-0.168-0.534-0.382-0.992-0.58-1.206c-0.29-0.29-0.748-0.474-1.496-0.474H93.53
				c-0.504,0-0.504,0.03-0.504,0.596V72.833z"/>
			<path fill="#FFFFFF" d="M116.371,77.214c0,0.642,0.029,0.946,0.32,1.008c0.061,0.062,0.045,0.321-0.047,0.366
				c-0.258,0.047-0.656,0.092-1.067,0.229c-0.534,0.168-1.848,0.366-2.702,0.366c-1.039,0-1.924-0.107-3.008-0.535
				c-1.787-0.717-3.009-2.411-3.009-4.609c0-1.909,0.855-3.589,2.688-4.611c1.038-0.565,2.274-0.81,3.573-0.81
				c1.694,0,2.533,0.366,3.022,0.366c0.046,0.458,0.062,1.527,0.214,2.458c-0.062,0.168-0.474,0.184-0.58,0.031
				c-0.488-1.436-1.451-2.153-2.871-2.153c-2.427,0-3.603,2.016-3.603,4.428c0,2.184,0.748,3.48,1.74,4.152
				c0.733,0.488,1.527,0.581,2.092,0.581c0.87,0,1.054-0.168,1.054-1.161V76.36c0-0.824-0.092-0.916-0.824-1.023l-0.672-0.092
				c-0.168-0.092-0.168-0.442,0-0.534c1.084,0.03,1.832,0.046,2.58,0.046c0.732,0,1.48-0.016,2-0.046
				c0.122,0.092,0.122,0.442,0,0.534l-0.352,0.062c-0.457,0.076-0.549,0.229-0.549,1.054V77.214z"/>
			<path fill="#FFFFFF" d="M127.211,71.062c0-1.421-0.092-1.512-0.779-1.649l-0.381-0.076c-0.123-0.092-0.139-0.428,0.029-0.52
				c0.733,0.031,1.496,0.046,2.229,0.046c0.748,0,1.496-0.015,2.229-0.046c0.121,0.092,0.121,0.428,0,0.52l-0.367,0.061
				c-0.686,0.123-0.778,0.244-0.778,1.665v3.526c0,1.786,0.198,3.756,2.519,3.756c1.955,0,2.551-1.71,2.551-3.801v-1.849
				c0-1.236-0.062-2.397-0.229-2.794c-0.138-0.32-0.474-0.412-0.886-0.488l-0.412-0.076c-0.122-0.122-0.092-0.428,0-0.52
				c0.824,0.031,1.42,0.046,2.046,0.046c0.565,0,1.13-0.015,1.71-0.046c0.092,0.092,0.122,0.397,0,0.52l-0.275,0.061
				c-0.396,0.092-0.686,0.184-0.824,0.504c-0.168,0.396-0.229,1.558-0.229,2.794v1.71c0,1.436-0.138,2.748-0.977,3.68
				c-0.672,0.719-1.787,1.1-3.023,1.1c-1.16,0-2.199-0.184-3.023-0.855c-0.793-0.656-1.129-1.786-1.129-3.45V71.062z"/>
			<path fill="#FFFFFF" d="M146.677,71.336c0-1.527-0.03-1.695-0.673-1.786l-0.411-0.062c-0.153-0.076-0.153-0.458,0.03-0.534
				c1.145-0.077,2.336-0.138,3.787-0.138c1.297,0,2.411,0.199,2.992,0.55c0.885,0.52,1.344,1.282,1.344,2.26
				c0,1.358-0.916,1.939-1.619,2.29c-0.152,0.076-0.152,0.168-0.076,0.336c1.008,2.046,1.634,3.191,2.366,3.816
				c0.397,0.32,0.794,0.413,1.023,0.428c0.137,0.076,0.137,0.307,0.061,0.397c-0.244,0.106-0.731,0.138-1.206,0.138
				c-1.404,0-2.289-0.504-2.963-1.604c-0.487-0.809-0.838-1.557-1.189-2.367c-0.184-0.412-0.428-0.533-0.81-0.533
				c-0.534,0-0.565,0.03-0.565,0.335v1.878c0,1.405,0.092,1.512,0.779,1.635l0.412,0.076c0.107,0.076,0.107,0.442,0,0.534
				c-0.81-0.031-1.512-0.046-2.244-0.046c-0.764,0-1.436,0.015-2.229,0.046c-0.123-0.092-0.123-0.458,0-0.534l0.411-0.076
				c0.687-0.123,0.779-0.229,0.779-1.635V71.336z M148.768,73.276c0,0.533,0.047,0.58,0.947,0.58c0.55,0,0.87-0.138,1.16-0.428
				c0.26-0.26,0.55-0.748,0.55-1.649c0-1.374-0.81-2.259-2.001-2.259c-0.625,0-0.656,0.045-0.656,0.777V73.276z"/>
			<path fill="#FFFFFF" d="M174.127,73.856c0,3.328-2.229,5.328-5.512,5.328c-3.068,0-5.297-2.016-5.297-5.207
				c0-3.022,2.259-5.358,5.45-5.358C171.943,68.619,174.127,70.756,174.127,73.856z M168.646,69.321
				c-1.879,0-2.885,1.756-2.885,4.306c0,1.862,0.656,4.855,3.145,4.855c2,0,2.777-1.954,2.777-4.428
				C171.684,71.443,170.539,69.321,168.646,69.321z"/>
			<path fill="#FFFFFF" d="M186.265,79.184c-1.403,0-2.274-0.397-2.595-0.58c-0.29-0.336-0.489-1.436-0.489-2.474
				c0.107-0.198,0.459-0.214,0.58-0.046c0.306,0.992,1.329,2.397,2.626,2.397c1.13,0,1.648-0.779,1.648-1.542
				c0-1.236-1.16-1.971-2.076-2.428c-1.098-0.55-2.305-1.466-2.305-2.978c-0.015-1.726,1.328-2.916,3.542-2.916
				c0.504,0,1.13,0.061,1.741,0.244c0.197,0.062,0.336,0.092,0.518,0.122c0.123,0.336,0.275,1.16,0.275,2.184
				c-0.076,0.183-0.457,0.198-0.596,0.046c-0.258-0.779-0.916-1.894-2.015-1.894c-1.007,0-1.558,0.656-1.558,1.421
				c0,0.701,0.626,1.343,1.389,1.739l1.008,0.535c0.947,0.504,2.152,1.389,2.152,3.068C190.111,77.963,188.57,79.184,186.265,79.184
				z"/>
		</g>
	</g>
</g>
</svg>
