<?xml version="1.0" encoding="utf-8"?>
<!-- Generator: Adobe Illustrator 16.0.0, SVG Export Plug-In . SVG Version: 6.00 Build 0)  -->
<!DOCTYPE svg PUBLIC "-//W3C//DTD SVG 1.1//EN" "http://www.w3.org/Graphics/SVG/1.1/DTD/svg11.dtd">
<svg version="1.1" id="Layer_1" xmlns="http://www.w3.org/2000/svg" xmlns:xlink="http://www.w3.org/1999/xlink" x="0px" y="0px"
	 width="216px" height="90px" viewBox="0 0 216 90" enable-background="new 0 0 216 90" xml:space="preserve">
<g>
	<polygon fill-rule="evenodd" clip-rule="evenodd" fill="#FFFFFF" points="45.428,67.835 60.519,67.835 60.519,22.266 
		45.428,22.266 45.428,67.835 	"/>
	<polygon fill-rule="evenodd" clip-rule="evenodd" fill="#FFFFFF" points="75.708,67.736 90.898,67.736 90.898,22.165 
		75.708,22.165 75.708,67.736 	"/>
	<path fill-rule="evenodd" clip-rule="evenodd" fill="#FFFFFF" d="M121.48,22.165h-19.014v45.469h15.19
		C150.15,69.646,159.405,24.076,121.48,22.165z M117.055,56.269V33.029C134.658,30.816,136.167,57.475,117.055,56.269z"/>
	<polygon fill-rule="evenodd" clip-rule="evenodd" fill="#FFFFFF" points="155.381,67.835 170.572,67.835 170.572,22.366 
		155.381,22.366 155.381,67.835 	"/>
	<polygon fill-rule="evenodd" clip-rule="evenodd" fill="#FFFFFF" points="60.519,52.947 75.708,52.947 75.708,37.757 
		60.519,37.757 60.519,52.947 	"/>
</g>
</svg>
