<?xml version="1.0" encoding="utf-8"?>
<!-- Generator: Adobe Illustrator 16.0.0, SVG Export Plug-In . SVG Version: 6.00 Build 0)  -->
<!DOCTYPE svg PUBLIC "-//W3C//DTD SVG 1.1//EN" "http://www.w3.org/Graphics/SVG/1.1/DTD/svg11.dtd">
<svg version="1.1" id="Layer_1" xmlns="http://www.w3.org/2000/svg" xmlns:xlink="http://www.w3.org/1999/xlink" x="0px" y="0px"
	 width="216px" height="90px" viewBox="0 0 216 90" enable-background="new 0 0 216 90" xml:space="preserve">
<g>
	<path fill-rule="evenodd" clip-rule="evenodd" fill="#FFFFFF" d="M41.04,34.757c-2.811,0-5.258,0.997-7.252,2.99
		c-1.993,1.994-2.991,4.441-2.991,7.252c0,2.9,0.998,5.258,2.991,7.252c1.994,2.086,4.441,3.082,7.252,3.082
		s5.258-0.996,7.251-3.082c1.994-1.994,2.991-4.352,2.991-7.252c0-2.811-0.997-5.258-2.991-7.252
		C46.298,35.754,43.851,34.757,41.04,34.757L41.04,34.757z"/>
	<path fill-rule="evenodd" clip-rule="evenodd" fill="#FFFFFF" d="M41.04,32.944V21.25c-4.169,0-8.067,1.087-11.694,3.082v17.767
		c0.636-2.629,2.086-4.805,4.171-6.436C35.782,33.851,38.229,32.944,41.04,32.944L41.04,32.944z"/>
	<path fill-rule="evenodd" clip-rule="evenodd" fill="#FFFFFF" d="M38.502,56.964c-2.72-0.635-4.895-2.084-6.526-4.26
		c-1.813-2.176-2.63-4.623-2.63-7.434H17.291c0,4.17,1.087,8.068,3.173,11.693H38.502L38.502,56.964z"/>
	<path fill-rule="evenodd" clip-rule="evenodd" fill="#FFFFFF" d="M52.824,48.082c-0.635,2.629-1.994,4.805-4.169,6.527
		c-2.176,1.721-4.715,2.629-7.525,2.629V68.75c4.171,0,8.068-0.998,11.694-3.082V48.082L52.824,48.082z"/>
	<path fill-rule="evenodd" clip-rule="evenodd" fill="#FFFFFF" d="M64.789,44.91c0-4.171-1.088-8.068-3.173-11.694H44.031
		c2.72,0.635,4.896,2.084,6.526,4.168c1.813,2.268,2.629,4.715,2.629,7.525H64.789L64.789,44.91z"/>
	<polygon fill-rule="evenodd" clip-rule="evenodd" fill="#FFFFFF" points="70.229,33.851 70.229,47.628 74.397,47.628 
		74.397,33.851 70.229,33.851 	"/>
	<polygon fill-rule="evenodd" clip-rule="evenodd" fill="#FFFFFF" points="96.243,33.851 91.983,33.851 91.983,43.822 
		91.983,43.822 83.916,33.851 77.389,33.851 77.389,47.628 81.649,47.628 81.649,37.567 81.649,37.567 89.626,47.628 96.243,47.628 
		96.243,33.851 	"/>
	<path fill-rule="evenodd" clip-rule="evenodd" fill="#FFFFFF" d="M103.224,39.289v-2.176h7.522c0.816,0,1.27,0.363,1.27,1.088
		c0,0.726-0.453,1.088-1.27,1.088H103.224L103.224,39.289z M103.224,42.099h7.613c0.997,0,1.541,0.453,1.541,1.178
		s-0.544,0.998-1.541,0.998h-7.613V42.099L103.224,42.099z M114.191,40.649v-0.091c0.725-0.182,1.177-0.453,1.45-0.816
		c0.453-0.453,0.634-1.269,0.634-2.357c0-1.268-0.453-2.174-1.269-2.809c-0.815-0.543-2.085-0.725-3.808-0.725H98.963v13.778h13.597
		c1.359,0,2.356-0.182,2.99-0.635c0.726-0.635,1.179-1.631,1.179-2.992c0-1.086-0.182-1.902-0.543-2.355
		C115.731,41.102,115.097,40.739,114.191,40.649L114.191,40.649z"/>
	<path fill-rule="evenodd" clip-rule="evenodd" fill="#FFFFFF" d="M136.58,33.851h-4.17v7.976c0,0.816-0.271,1.45-0.543,1.813
		c-0.363,0.453-1.089,0.635-1.904,0.635h-4.169c-0.907,0-1.45-0.182-1.903-0.635c-0.364-0.363-0.454-0.997-0.454-1.813v-7.976
		h-4.261v8.883c0,1.721,0.453,2.992,1.36,3.807c0.906,0.906,2.357,1.27,4.26,1.27h6.164c1.904,0,3.354-0.363,4.261-1.27
		c0.906-0.814,1.359-2.086,1.359-3.807V33.851L136.58,33.851z"/>
	<path fill-rule="evenodd" clip-rule="evenodd" fill="#FFFFFF" d="M143.56,40.558v-3.354c2.236,0,4.472,0,6.708,0
		c1.135,0,1.903,0.193,1.903,1.45c0,0.151,0,0.302,0,0.453c0,0.997-0.544,1.45-1.541,1.45H143.56L143.56,40.558z M143.56,44.093
		h6.708c0.635,0,1.088,0.092,1.359,0.361c0.272,0.273,0.363,0.816,0.363,1.543v1.631h4.26v-2.357c0-0.996-0.181-1.813-0.634-2.266
		c-0.363-0.362-0.907-0.635-1.632-0.816c0.906-0.181,1.541-0.634,1.903-1.178c0.271-0.545,0.453-1.27,0.453-2.267v-0.815
		c0-1.359-0.271-2.356-0.815-2.991c-0.726-0.816-1.813-1.088-3.354-1.088H139.3v13.778h4.26V44.093L143.56,44.093z"/>
	<path fill-rule="evenodd" clip-rule="evenodd" fill="#FFFFFF" d="M168.125,39.017l-4.261-0.181c-0.271,0-0.543-0.182-0.635-0.363
		c-0.091-0.091-0.181-0.362-0.181-0.635c0-0.726,0.544-1.087,1.632-1.087h4.713c0.907,0,1.542,0.09,1.813,0.271
		c0.181,0.182,0.272,0.544,0.272,1.178h4.259v-0.453c0-1.45-0.271-2.447-0.905-2.99c-0.726-0.816-2.267-1.179-4.442-1.179h-5.981
		c-2.448,0-4.079,0.453-4.805,1.269c-0.544,0.634-0.816,1.722-0.816,3.172c0,0.997,0.091,1.632,0.272,2.175
		c0.091,0.544,0.453,0.907,0.906,1.269c0.906,0.545,2.811,0.816,5.982,0.816l5.076,0.182c0.362,0,0.634,0.182,0.726,0.362
		l0.181,0.727c0,0.451-0.181,0.814-0.544,0.996l-1.269,0.182h-5.258l-1.359-0.273c-0.272-0.18-0.453-0.633-0.453-1.357h-4.261v0.996
		c0,1.451,0.453,2.447,1.27,2.99c0.725,0.455,2.175,0.727,4.17,0.727h5.166c2.811,0,4.714-0.271,5.529-0.816
		c0.544-0.271,0.907-0.725,1.088-1.268c0.182-0.545,0.272-1.361,0.272-2.268c0-1.088-0.091-1.813-0.363-2.356
		c-0.182-0.636-0.634-1.089-1.179-1.36C173.745,39.198,171.569,39.017,168.125,39.017L168.125,39.017z"/>
	<polygon fill-rule="evenodd" clip-rule="evenodd" fill="#FFFFFF" points="190.424,33.851 184.894,33.851 177.371,47.628 
		182.175,47.628 183.354,45.181 184.985,42.189 187.704,37.023 190.424,42.189 184.985,42.189 183.354,45.181 192.056,45.181 
		193.324,47.628 198.038,47.628 190.424,33.851 	"/>
	<path fill-rule="evenodd" clip-rule="evenodd" fill="#FFFFFF" d="M104.985,58.496v-1.078l3.904-0.008v3.42
		c-0.599,0.479-1.217,0.838-1.854,1.08c-0.638,0.24-1.292,0.361-1.962,0.361c-0.906,0-1.73-0.193-2.469-0.582
		c-0.74-0.387-1.299-0.949-1.677-1.682c-0.378-0.734-0.566-1.555-0.566-2.459c0-0.898,0.188-1.734,0.564-2.512
		c0.373-0.779,0.914-1.357,1.618-1.734s1.516-0.564,2.435-0.564c0.666,0,1.269,0.107,1.808,0.324c0.539,0.215,0.962,0.514,1.267,0.9
		c0.307,0.387,0.538,0.889,0.699,1.51l-1.101,0.303c-0.14-0.471-0.312-0.84-0.516-1.107c-0.206-0.27-0.5-0.484-0.882-0.645
		c-0.38-0.16-0.806-0.242-1.269-0.242c-0.559,0-1.042,0.086-1.447,0.256c-0.408,0.168-0.734,0.393-0.985,0.67
		c-0.249,0.275-0.442,0.578-0.582,0.912c-0.233,0.568-0.352,1.186-0.352,1.854c0,0.822,0.142,1.51,0.425,2.063
		c0.283,0.555,0.695,0.965,1.236,1.232c0.541,0.27,1.114,0.404,1.722,0.404c0.53,0,1.046-0.104,1.548-0.307
		c0.505-0.203,0.885-0.42,1.145-0.65v-1.719H104.985L104.985,58.496z"/>
	<path fill-rule="evenodd" clip-rule="evenodd" fill="#FFFFFF" d="M110.531,62.113v-6.678h1.018v1.012
		c0.26-0.473,0.501-0.785,0.722-0.936c0.219-0.15,0.462-0.229,0.726-0.229c0.382,0,0.769,0.123,1.163,0.365l-0.391,1.053
		c-0.274-0.166-0.552-0.248-0.828-0.248c-0.249,0-0.471,0.076-0.668,0.223c-0.197,0.15-0.337,0.357-0.421,0.621
		c-0.127,0.402-0.188,0.842-0.188,1.32v3.496H110.531L110.531,62.113z"/>
	<path fill-rule="evenodd" clip-rule="evenodd" fill="#FFFFFF" d="M119.21,62.113v-0.98c-0.521,0.756-1.228,1.131-2.12,1.131
		c-0.394,0-0.763-0.074-1.104-0.225c-0.342-0.15-0.595-0.342-0.76-0.568c-0.168-0.23-0.284-0.51-0.351-0.84
		c-0.045-0.223-0.068-0.576-0.068-1.059v-4.137h1.131v3.703c0,0.592,0.024,0.99,0.069,1.195c0.072,0.299,0.223,0.531,0.453,0.703
		c0.231,0.17,0.517,0.252,0.856,0.252c0.339,0,0.656-0.086,0.955-0.26c0.298-0.174,0.509-0.412,0.631-0.709
		c0.125-0.301,0.187-0.736,0.187-1.307v-3.578h1.132v6.678H119.21L119.21,62.113z"/>
	<path fill-rule="evenodd" clip-rule="evenodd" fill="#FFFFFF" d="M121.997,64.671v-9.236h1.03v0.867
		c0.242-0.338,0.518-0.594,0.824-0.764c0.305-0.17,0.676-0.256,1.111-0.256c0.571,0,1.074,0.148,1.51,0.439
		c0.438,0.295,0.766,0.709,0.987,1.244c0.223,0.533,0.335,1.119,0.335,1.758c0,0.682-0.123,1.299-0.369,1.846
		c-0.245,0.547-0.602,0.967-1.069,1.258s-0.959,0.436-1.475,0.436c-0.378,0-0.715-0.078-1.016-0.238
		c-0.3-0.158-0.545-0.359-0.738-0.604v3.25H121.997L121.997,64.671z M123.021,58.812c0,0.859,0.174,1.494,0.521,1.906
		c0.348,0.41,0.771,0.615,1.265,0.615c0.502,0,0.934-0.211,1.292-0.639c0.358-0.426,0.539-1.084,0.539-1.977
		c0-0.854-0.176-1.488-0.525-1.914c-0.351-0.422-0.769-0.635-1.254-0.635c-0.483,0-0.91,0.225-1.281,0.676
		C123.205,57.296,123.021,57.953,123.021,58.812L123.021,58.812z"/>
	<path fill-rule="evenodd" clip-rule="evenodd" fill="#FFFFFF" d="M128.737,58.773c0-1.236,0.343-2.152,1.032-2.748
		c0.573-0.492,1.273-0.742,2.1-0.742c0.919,0,1.67,0.301,2.252,0.904c0.584,0.602,0.873,1.432,0.873,2.492
		c0,0.861-0.129,1.537-0.386,2.027c-0.258,0.494-0.634,0.877-1.125,1.15c-0.494,0.271-1.03,0.406-1.614,0.406
		c-0.934,0-1.689-0.297-2.267-0.898C129.024,60.765,128.737,59.902,128.737,58.773L128.737,58.773z M129.9,58.773
		c0,0.857,0.187,1.496,0.561,1.922c0.373,0.428,0.844,0.639,1.408,0.639c0.563,0,1.03-0.213,1.403-0.641
		c0.372-0.428,0.559-1.08,0.559-1.955c0-0.828-0.187-1.453-0.563-1.879s-0.842-0.639-1.399-0.639c-0.564,0-1.035,0.213-1.408,0.637
		C130.087,57.279,129.9,57.919,129.9,58.773L129.9,58.773z"/>
	<polygon fill-rule="evenodd" clip-rule="evenodd" fill="#FFFFFF" points="140.107,62.113 140.107,52.894 146.329,52.894 
		146.329,53.982 141.329,53.982 141.329,56.837 145.654,56.837 145.654,57.925 141.329,57.925 141.329,62.113 140.107,62.113 	"/>
	<path fill-rule="evenodd" clip-rule="evenodd" fill="#FFFFFF" d="M147.773,54.197v-1.303h1.134v1.303H147.773L147.773,54.197z
		 M147.773,62.113v-6.678h1.134v6.678H147.773L147.773,62.113z"/>
	<path fill-rule="evenodd" clip-rule="evenodd" fill="#FFFFFF" d="M150.631,62.113v-6.678h1.018v0.949
		c0.491-0.734,1.199-1.102,2.125-1.102c0.403,0,0.772,0.074,1.109,0.217c0.34,0.146,0.591,0.336,0.758,0.572
		c0.17,0.232,0.286,0.512,0.354,0.834c0.041,0.211,0.063,0.578,0.063,1.102v4.105h-1.134V58.05c0-0.459-0.043-0.805-0.131-1.035
		c-0.088-0.227-0.244-0.41-0.468-0.545c-0.226-0.137-0.487-0.207-0.79-0.207c-0.483,0-0.897,0.156-1.25,0.461
		c-0.35,0.307-0.523,0.885-0.523,1.742v3.646H150.631L150.631,62.113z"/>
	<path fill-rule="evenodd" clip-rule="evenodd" fill="#FFFFFF" d="M162.151,61.289c-0.421,0.357-0.824,0.607-1.21,0.756
		c-0.389,0.146-0.806,0.219-1.25,0.219c-0.734,0-1.296-0.178-1.691-0.535c-0.393-0.359-0.59-0.818-0.59-1.375
		c0-0.328,0.072-0.627,0.223-0.896c0.148-0.271,0.344-0.488,0.584-0.65c0.243-0.164,0.513-0.289,0.816-0.371
		c0.221-0.059,0.556-0.117,1.004-0.17c0.915-0.109,1.589-0.238,2.021-0.391c0.004-0.154,0.006-0.254,0.006-0.295
		c0-0.461-0.107-0.787-0.322-0.975c-0.287-0.258-0.719-0.385-1.287-0.385c-0.533,0-0.926,0.094-1.182,0.279
		c-0.253,0.188-0.439,0.518-0.562,0.992l-1.105-0.152c0.101-0.473,0.266-0.855,0.495-1.146c0.23-0.291,0.564-0.518,1.001-0.674
		c0.436-0.156,0.939-0.236,1.516-0.236c0.57,0,1.032,0.068,1.389,0.201c0.356,0.137,0.618,0.303,0.788,0.508
		c0.167,0.203,0.283,0.459,0.352,0.77c0.036,0.193,0.056,0.541,0.056,1.045v1.508c0,1.055,0.023,1.721,0.073,1.996
		c0.047,0.279,0.144,0.549,0.285,0.803h-1.183C162.262,61.88,162.184,61.605,162.151,61.289L162.151,61.289z M162.058,58.761
		c-0.412,0.168-1.028,0.311-1.849,0.428c-0.466,0.068-0.797,0.143-0.987,0.227c-0.193,0.084-0.344,0.205-0.446,0.369
		c-0.105,0.16-0.159,0.338-0.159,0.537c0,0.303,0.116,0.553,0.344,0.756c0.228,0.199,0.563,0.299,1.002,0.299
		c0.436,0,0.824-0.094,1.164-0.285c0.339-0.191,0.59-0.453,0.749-0.783c0.122-0.256,0.183-0.633,0.183-1.131V58.761L162.058,58.761z
		"/>
	<path fill-rule="evenodd" clip-rule="evenodd" fill="#FFFFFF" d="M164.957,62.113v-6.678h1.018v0.949
		c0.492-0.734,1.2-1.102,2.125-1.102c0.404,0,0.773,0.074,1.11,0.217c0.339,0.146,0.59,0.336,0.758,0.572
		c0.169,0.232,0.285,0.512,0.354,0.834c0.041,0.211,0.063,0.578,0.063,1.102v4.105h-1.133V58.05c0-0.459-0.043-0.805-0.132-1.035
		c-0.088-0.227-0.244-0.41-0.468-0.545c-0.226-0.137-0.487-0.207-0.79-0.207c-0.482,0-0.897,0.156-1.249,0.461
		c-0.35,0.307-0.523,0.885-0.523,1.742v3.646H164.957L164.957,62.113z"/>
	<path fill-rule="evenodd" clip-rule="evenodd" fill="#FFFFFF" d="M176.479,59.666l1.111,0.146c-0.12,0.768-0.432,1.367-0.934,1.801
		c-0.5,0.434-1.116,0.65-1.846,0.65c-0.913,0-1.648-0.297-2.203-0.895c-0.556-0.598-0.835-1.453-0.835-2.57
		c0-0.721,0.121-1.352,0.358-1.893c0.241-0.541,0.604-0.947,1.093-1.217c0.487-0.271,1.02-0.406,1.593-0.406
		c0.726,0,1.32,0.186,1.779,0.553c0.462,0.365,0.758,0.887,0.89,1.563l-1.102,0.168c-0.105-0.447-0.29-0.785-0.556-1.012
		c-0.267-0.227-0.589-0.34-0.967-0.34c-0.57,0-1.034,0.205-1.391,0.613s-0.534,1.055-0.534,1.939c0,0.896,0.172,1.549,0.517,1.957
		c0.344,0.406,0.793,0.609,1.347,0.609c0.444,0,0.813-0.137,1.111-0.41C176.21,60.652,176.398,60.234,176.479,59.666L176.479,59.666
		z"/>
	<path fill-rule="evenodd" clip-rule="evenodd" fill="#FFFFFF" d="M178.565,54.197v-1.303h1.133v1.303H178.565L178.565,54.197z
		 M178.565,62.113v-6.678h1.133v6.678H178.565L178.565,62.113z"/>
	<path fill-rule="evenodd" clip-rule="evenodd" fill="#FFFFFF" d="M185.992,59.962l1.17,0.145c-0.185,0.684-0.526,1.215-1.023,1.592
		c-0.5,0.377-1.138,0.564-1.913,0.564c-0.977,0-1.752-0.301-2.322-0.9c-0.573-0.602-0.859-1.445-0.859-2.531
		c0-1.125,0.29-1.996,0.868-2.617c0.579-0.621,1.328-0.932,2.251-0.932c0.894,0,1.623,0.305,2.188,0.912
		c0.567,0.607,0.851,1.465,0.851,2.566c0,0.068-0.003,0.168-0.007,0.303h-4.98c0.041,0.734,0.249,1.295,0.623,1.684
		c0.373,0.391,0.837,0.586,1.396,0.586c0.414,0,0.769-0.109,1.063-0.328C185.589,60.789,185.82,60.441,185.992,59.962
		L185.992,59.962z M182.276,58.132h3.729c-0.049-0.561-0.192-0.984-0.427-1.264c-0.36-0.436-0.829-0.654-1.402-0.654
		c-0.519,0-0.957,0.174-1.312,0.521C182.511,57.083,182.315,57.55,182.276,58.132L182.276,58.132z"/>
	<path fill-rule="evenodd" clip-rule="evenodd" fill="#FFFFFF" d="M188.572,62.113v-6.678h1.018v1.012
		c0.26-0.473,0.5-0.785,0.722-0.936c0.219-0.15,0.461-0.229,0.726-0.229c0.382,0,0.769,0.123,1.163,0.365l-0.391,1.053
		c-0.274-0.166-0.552-0.248-0.828-0.248c-0.249,0-0.471,0.076-0.668,0.223c-0.197,0.15-0.337,0.357-0.421,0.621
		c-0.127,0.402-0.188,0.842-0.188,1.32v3.496H188.572L188.572,62.113z"/>
	<path fill-rule="evenodd" clip-rule="evenodd" fill="#FFFFFF" d="M192.451,58.773c0-1.236,0.344-2.152,1.032-2.748
		c0.574-0.492,1.273-0.742,2.1-0.742c0.919,0,1.671,0.301,2.252,0.904c0.584,0.602,0.874,1.432,0.874,2.492
		c0,0.861-0.129,1.537-0.387,2.027c-0.258,0.494-0.633,0.877-1.125,1.15c-0.493,0.271-1.03,0.406-1.614,0.406
		c-0.934,0-1.688-0.297-2.267-0.898C192.739,60.765,192.451,59.902,192.451,58.773L192.451,58.773z M193.615,58.773
		c0,0.857,0.187,1.496,0.56,1.922c0.374,0.428,0.844,0.639,1.408,0.639c0.563,0,1.031-0.213,1.404-0.641
		c0.371-0.428,0.558-1.08,0.558-1.955c0-0.828-0.187-1.453-0.562-1.879c-0.376-0.426-0.842-0.639-1.4-0.639
		c-0.564,0-1.034,0.213-1.408,0.637C193.802,57.279,193.615,57.919,193.615,58.773L193.615,58.773z"/>
</g>
</svg>
