<?xml version="1.0" encoding="utf-8"?>
<!-- Generator: Adobe Illustrator 16.0.0, SVG Export Plug-In . SVG Version: 6.00 Build 0)  -->
<!DOCTYPE svg PUBLIC "-//W3C//DTD SVG 1.1//EN" "http://www.w3.org/Graphics/SVG/1.1/DTD/svg11.dtd">
<svg version="1.1" id="Layer_1" xmlns="http://www.w3.org/2000/svg" xmlns:xlink="http://www.w3.org/1999/xlink" x="0px" y="0px"
	 width="216px" height="90px" viewBox="0 0 216 90" enable-background="new 0 0 216 90" xml:space="preserve">
<g>
	<path fill-rule="evenodd" clip-rule="evenodd" fill="#FFFFFF" d="M30.592,24.397c11.378,0,20.602,9.223,20.602,20.602
		S41.97,65.603,30.592,65.603c-11.379,0-20.603-9.225-20.603-20.604S19.213,24.397,30.592,24.397L30.592,24.397z M30.592,26.36
		c-10.295,0-18.64,8.346-18.64,18.639c0,10.295,8.345,18.641,18.64,18.641s18.64-8.346,18.64-18.641
		C49.232,34.706,40.887,26.36,30.592,26.36z"/>
	<path fill-rule="evenodd" clip-rule="evenodd" fill="#FFFFFF" d="M31.604,48.993v6.314h-2.021v-6.314
		c-0.966,0-2.227-0.004-2.704-0.02l-6.702,0.016c-0.567,0.029-1.151-0.102-1.677-0.404c-1.019-0.588-1.566-1.674-1.522-2.766
		c0.001-0.162,0.019-0.303,0.039-0.414c0.239-1.336,0.709-2.654,1.423-3.891c0.718-1.244,1.628-2.314,2.673-3.191
		c0.701-0.516,1.682-0.775,2.585-0.617c0.255-0.863,0.854-1.574,1.633-1.98c0.148-0.086,0.287-0.145,0.401-0.186
		c1.52-0.549,3.156-0.85,4.859-0.85c1.711,0,3.356,0.303,4.883,0.857c0.878,0.383,1.661,1.18,1.988,2.133
		c0.863-0.197,1.755-0.006,2.458,0.527c1.044,0.877,2.105,2.063,2.823,3.307c0.714,1.236,1.185,2.555,1.423,3.891
		c0.02,0.111,0.038,0.252,0.039,0.414c0.045,1.092-0.503,2.178-1.522,2.766c-0.525,0.303-1.108,0.434-1.676,0.404l-6.703-0.016
		C33.828,48.989,32.569,48.993,31.604,48.993L31.604,48.993z M38.739,39.847c-0.319-0.242-0.767-0.283-1.135-0.07
		c-0.194,0.111-0.337,0.277-0.423,0.467l-3.396,5.916c-0.104,0.156-0.117,0.363-0.017,0.539c0.102,0.176,0.295,0.27,0.486,0.252
		l6.819,0.018c0.203,0.018,0.411-0.023,0.6-0.133c0.355-0.207,0.542-0.592,0.51-0.977c0.002-0.027,0-0.059-0.006-0.1
		c-0.198-1.107-0.588-2.201-1.184-3.232c-0.599-1.037-1.355-1.926-2.222-2.654C38.76,39.862,38.749,39.854,38.739,39.847
		L38.739,39.847z M22.446,39.847c-0.011,0.008-0.021,0.016-0.034,0.025c-0.867,0.729-1.623,1.617-2.222,2.654
		c-0.595,1.031-0.985,2.125-1.183,3.232C19,45.8,18.998,45.831,19,45.858c-0.032,0.385,0.155,0.77,0.511,0.977
		c0.189,0.109,0.398,0.15,0.6,0.133l6.818-0.018c0.192,0.018,0.384-0.076,0.487-0.252c0.1-0.176,0.087-0.383-0.017-0.539
		l-3.396-5.916c-0.086-0.189-0.229-0.355-0.423-0.467C23.211,39.563,22.765,39.604,22.446,39.847L22.446,39.847z M34.832,37.468
		c-0.014-0.008-0.03-0.014-0.047-0.02c-1.308-0.477-2.72-0.736-4.192-0.736c-1.464,0-2.87,0.258-4.172,0.729
		c-0.046,0.018-0.083,0.035-0.109,0.055c-0.428,0.201-0.725,0.637-0.725,1.143c0,0.268,0.083,0.518,0.226,0.721l4.211,7.252
		c0.1,0.215,0.317,0.363,0.569,0.363c0.246,0,0.459-0.143,0.563-0.35l4.212-7.254c0.15-0.207,0.238-0.463,0.238-0.738
		C35.605,38.108,35.286,37.659,34.832,37.468z"/>
	<polygon fill-rule="evenodd" clip-rule="evenodd" fill="#FFFFFF" points="69.104,34.212 74.134,44.513 79.166,34.212 
		86.773,34.212 86.773,54.815 79.166,54.815 79.166,44.513 74.134,54.813 69.104,44.513 69.104,54.813 61.496,54.813 61.496,34.212 
			"/>
	<path fill-rule="evenodd" clip-rule="evenodd" fill="#FFFFFF" d="M101.853,37.296l-3.088,10.756h6.178L101.853,37.296
		L101.853,37.296z M89.215,54.815l5.917-20.604h13.443l5.917,20.604h-7.608l-0.971-3.383h-8.121l-0.971,3.383H89.215z"/>
	<path fill-rule="evenodd" clip-rule="evenodd" fill="#FFFFFF" d="M126.303,36.579c1.715,0,3.381,0.918,3.381,2.785
		s-1.47,3.381-3.381,3.381h-1.65v-6.166H126.303L126.303,36.579z M131.155,34.22h-14.237v20.596h7.605v-8.584h6.632
		c3.317,0,6.005-2.688,6.005-6.006C137.16,36.909,134.473,34.22,131.155,34.22z"/>
	<polygon fill-rule="evenodd" clip-rule="evenodd" fill="#FFFFFF" points="139.799,34.212 160.025,34.212 160.025,37.593 
		147.406,37.593 147.406,42.831 160.025,42.831 160.025,46.214 147.406,46.214 147.406,54.815 139.799,54.815 	"/>
	<polygon fill-rule="evenodd" clip-rule="evenodd" fill="#FFFFFF" points="193.391,51.433 206.011,51.433 206.011,54.813 
		185.783,54.813 185.783,34.21 206.011,34.21 206.011,37.593 193.391,37.593 193.391,42.831 206.011,42.831 206.011,46.212 
		193.391,46.212 	"/>
	<path fill-rule="evenodd" clip-rule="evenodd" fill="#FFFFFF" d="M172.069,36.583c1.671,0,3.381,0.916,3.381,2.783
		s-1.513,3.381-3.381,3.381h-1.649v-6.164H172.069L172.069,36.583z M182.928,49.495v0.17
		C182.928,49.608,182.93,49.552,182.928,49.495L182.928,49.495z M182.928,49.665c0-0.057,0.002-0.113,0-0.17
		c-0.09-2.766-2.363-4.979-5.15-4.979c2.844,0,5.15-2.307,5.15-5.15s-2.307-5.148-5.15-5.148h-6.643h-8.449v10.299v10.299
		l7.734-0.002v-8.529h1.649c1.864,0,3.381,1.514,3.381,3.381c0,0.055-0.002,0.111-0.005,0.166v4.982h2.332h5.15V49.665z"/>
</g>
</svg>
