<?xml version="1.0" encoding="utf-8"?>
<!-- Generator: Adobe Illustrator 16.0.0, SVG Export Plug-In . SVG Version: 6.00 Build 0)  -->
<!DOCTYPE svg PUBLIC "-//W3C//DTD SVG 1.1//EN" "http://www.w3.org/Graphics/SVG/1.1/DTD/svg11.dtd">
<svg version="1.1" id="Layer_1" xmlns="http://www.w3.org/2000/svg" xmlns:xlink="http://www.w3.org/1999/xlink" x="0px" y="0px"
	 width="216px" height="90px" viewBox="0 0 216 90" enable-background="new 0 0 216 90" xml:space="preserve">
<g>
	<path fill-rule="evenodd" clip-rule="evenodd" fill="#FFFFFF" d="M197.665,40.211c0-1.6,1.295-2.895,2.894-2.895
		c1.6,0,2.895,1.295,2.895,2.895c0,1.598-1.295,2.895-2.895,2.895C198.96,43.105,197.665,41.809,197.665,40.211z M196.938,40.211
		c0-2.001,1.621-3.623,3.621-3.623c2.001,0,3.622,1.622,3.622,3.623c0,2-1.621,3.623-3.622,3.623
		C198.559,43.834,196.938,42.211,196.938,40.211z M200.482,39.093h-0.675l-0.397,1.763l-0.411-1.763h-0.683v2.235h0.437v-1.867
		l0.414,1.867h0.458l0.416-1.867l0.007,1.867h0.435V39.093z M200.932,41.328h0.455v-0.874h0.483c0.347,0,0.364,0.117,0.364,0.423
		c0,0.23,0.02,0.346,0.05,0.451h0.519c-0.102-0.097-0.102-0.177-0.102-0.504c0-0.418-0.1-0.486-0.283-0.566
		c0.222-0.074,0.344-0.287,0.344-0.532c0-0.193-0.106-0.633-0.701-0.633h-1.129V41.328z M201.387,40.076v-0.597h0.582
		c0.277,0,0.329,0.174,0.329,0.292c0,0.222-0.118,0.305-0.362,0.305H201.387z"/>
	<g>
		<g>
			<polygon fill="#FFFFFF" points="29.207,56.542 43.266,18.01 40.244,18.01 27.583,52.637 			"/>
			<polygon fill="#FFFFFF" points="31.296,61.529 47.164,18.01 44.146,18.01 29.681,57.663 			"/>
			<polygon fill="#FFFFFF" points="33.383,66.512 51.071,18.01 48.051,18.01 31.763,62.655 			"/>
			<polygon fill="#FFFFFF" points="35.467,71.508 54.968,18.01 51.954,18.01 33.851,67.641 			"/>
		</g>
		<g>
			<path fill="#FFFFFF" d="M68.842,19.368c0.188,0.53,0.15,1.16-0.124,1.897c-0.277,0.759-0.69,1.37-1.242,1.835
				c-0.312,0.262-0.707,0.499-1.2,0.705c0.546,0.236,0.889,0.597,1.026,1.098c0.144,0.501,0.09,1.107-0.168,1.817
				c-0.27,0.746-0.697,1.401-1.272,1.981c-0.386,0.394-0.797,0.719-1.246,0.983c-0.505,0.304-1.049,0.508-1.635,0.625
				c-0.576,0.107-1.19,0.169-1.821,0.169h-5.605l4.53-12.434h6.01C67.605,18.064,68.521,18.51,68.842,19.368z M60.021,25.011
				l-1.208,3.316h3.021c0.54,0,0.992-0.07,1.344-0.213c0.655-0.278,1.111-0.787,1.396-1.56c0.229-0.65,0.126-1.103-0.316-1.338
				c-0.244-0.134-0.634-0.206-1.17-0.206H60.021z M61.771,20.185l-1,2.769h3.027c0.535,0,1.022-0.104,1.425-0.317
				c0.411-0.205,0.718-0.567,0.914-1.098c0.211-0.589,0.13-0.974-0.259-1.158c-0.331-0.129-0.8-0.195-1.392-0.195H61.771z"/>
			<path fill="#FFFFFF" d="M76.07,18.046h2.944l-0.139,12.434h-2.813l0.116-2.559h-4.583l-1.762,2.559h-2.723L76.07,18.046z
				 M73.092,25.778h3.181l0.209-4.894L73.092,25.778z"/>
			<path fill="#FFFFFF" d="M84.955,18.046h2.714l1.818,8.675l3.155-8.675h2.412l-4.532,12.434h-2.575l-1.884-8.854l-3.229,8.854
				h-2.402L84.955,18.046z"/>
			<path fill="#FFFFFF" d="M98.21,19.341c1.376-1.032,2.831-1.549,4.385-1.549c2.064,0,3.334,0.691,3.785,2.063
				c0.244,0.771,0.251,1.545,0.008,2.32h-2.583c0.049-0.597,0-1.049-0.147-1.343c-0.273-0.54-0.858-0.813-1.773-0.813
				c-0.924,0-1.798,0.38-2.611,1.147c-0.813,0.76-1.475,1.841-1.977,3.236c-0.514,1.396-0.614,2.438-0.301,3.131
				c0.313,0.695,0.902,1.04,1.768,1.04c0.891,0,1.68-0.295,2.371-0.893c0.37-0.321,0.759-0.8,1.17-1.442h2.579
				c-0.718,1.353-1.695,2.46-2.913,3.308c-1.219,0.85-2.552,1.277-3.984,1.277c-1.763,0-2.944-0.572-3.543-1.719
				c-0.594-1.157-0.523-2.736,0.214-4.742C95.442,22.181,96.63,20.505,98.21,19.341z"/>
			<path fill="#FFFFFF" d="M115.42,29.372c-1.291,0.969-2.824,1.451-4.611,1.451c-1.77,0-2.951-0.482-3.536-1.451
				c-0.829-1.192-0.839-2.896-0.026-5.134c0.835-2.272,2.08-3.991,3.759-5.129c1.286-0.965,2.827-1.452,4.604-1.452
				c1.779,0,2.955,0.487,3.543,1.452c0.846,1.138,0.846,2.856,0.019,5.129C118.357,26.476,117.113,28.18,115.42,29.372z
				 M114.495,27.484c0.884-0.764,1.575-1.845,2.085-3.246c0.52-1.397,0.598-2.474,0.273-3.24c-0.322-0.766-1.006-1.148-2.035-1.148
				c-1.037,0-1.992,0.383-2.885,1.148c-0.889,0.754-1.59,1.839-2.099,3.24c-0.519,1.401-0.607,2.482-0.268,3.246
				c0.349,0.767,1.028,1.137,2.054,1.137C112.656,28.621,113.617,28.251,114.495,27.484z"/>
		</g>
		<path fill-rule="evenodd" clip-rule="evenodd" fill="#FFFFFF" d="M184.173,57.762l3.394-10.299l3.303,10.299H184.173z
			 M192.003,37.234h-8.688l-12.236,34.277h8.559l2.237-6.795h11.227c0.238,0.769,2.17,6.795,2.17,6.795h8.845L192.003,37.234z
			 M21.136,37.234h-9.316v34.273h15.764V52.637L21.136,37.234z M48.814,37.234L43.33,52.637v18.871h15.776V37.234H48.814z
			 M81.675,37.234v20.889c0,2.158-0.252,3.729-0.738,4.68c-0.741,1.643-2.34,2.424-4.893,2.424c-2.554,0-4.156-0.781-4.897-2.397
			c-0.5-0.977-0.751-2.548-0.751-4.706V37.234h-8.258v20.911c0,3.604,0.579,6.465,1.717,8.504c2.159,3.779,6.252,5.693,12.189,5.693
			c5.934,0,10.036-1.914,12.175-5.687c1.143-2.046,1.713-4.907,1.713-8.511V37.234H81.675z M92.876,37.234v34.277h24.599v-7.196
			h-16.447V37.234H92.876z M109.961,37.234v7.121h9.93v27.156h8.224V44.355h9.929v-7.121H109.961z M140.514,37.234h7.795h0.312
			h8.399c0,0,5.664,19.848,6.69,23.408l6.747-23.408h8.482l-11.685,34.277h-7.388L148.62,38.161v33.351h-8.106V37.234z"/>
	</g>
</g>
</svg>
